<svg xmlns="http://www.w3.org/2000/svg" viewBox="0 0 4096 835" role="img" aria-labelledby="title desc">
  <title id="title">Selo documental PAdES em linguagem visual de passaporte</title>
  <desc id="desc">Composição de segurança sem marca institucional, com dados criptográficos à esquerda e medalhão técnico PAdES destacado.</desc>
  <defs>
    <linearGradient id="paper" x1="0" y1="0" x2="1" y2="0">
      <stop offset="0" stop-color="#edf8f3"/>
      <stop offset=".32" stop-color="#fbfdfc"/>
      <stop offset=".7" stop-color="#f8fbfa"/>
      <stop offset="1" stop-color="#eef2fb"/>
    </linearGradient>
    <linearGradient id="dataZone" x1="0" y1="0" x2="1" y2="0">
      <stop offset="0" stop-color="#fff" stop-opacity=".72"/>
      <stop offset=".12" stop-color="#fff" stop-opacity=".94"/>
      <stop offset=".83" stop-color="#fff" stop-opacity=".89"/>
      <stop offset="1" stop-color="#fff" stop-opacity=".28"/>
    </linearGradient>
    <linearGradient id="gold" x1="0" y1="0" x2="0" y2="1">
      <stop offset="0" stop-color="#ffe39b"/>
      <stop offset=".52" stop-color="#f5b51b"/>
      <stop offset="1" stop-color="#bd7900"/>
    </linearGradient>
    <linearGradient id="padesBadge" x1="0" y1="0" x2="1" y2="1">
      <stop offset="0" stop-color="#1d347f"/>
      <stop offset=".56" stop-color="#2858b8"/>
      <stop offset="1" stop-color="#14336f"/>
    </linearGradient>
    <radialGradient id="brandHalo" cx="50%" cy="50%" r="50%">
      <stop offset="0" stop-color="#fff" stop-opacity=".92"/>
      <stop offset=".55" stop-color="#dff3e9" stop-opacity=".62"/>
      <stop offset="1" stop-color="#00a16b" stop-opacity=".02"/>
    </radialGradient>
    <radialGradient id="padesHalo" cx="50%" cy="50%" r="50%">
      <stop offset="0" stop-color="#fff" stop-opacity=".82"/>
      <stop offset=".62" stop-color="#e1e9fb" stop-opacity=".48"/>
      <stop offset="1" stop-color="#2858b8" stop-opacity=".02"/>
    </radialGradient>
    <pattern id="microgrid" width="88" height="88" patternUnits="userSpaceOnUse">
      <path d="M0 44h88M44 0v88" fill="none" stroke="#14845f" stroke-width="1.1" stroke-opacity=".075"/>
      <circle cx="44" cy="44" r="20" fill="none" stroke="#2858b8" stroke-width="1" stroke-opacity=".05"/>
      <circle cx="44" cy="44" r="3" fill="#f5b51b" fill-opacity=".12"/>
    </pattern>
    <pattern id="microtext" width="790" height="34" patternUnits="userSpaceOnUse">
      <text x="0" y="24" fill="#17231f" fill-opacity=".46" font-family="Arial,Helvetica,sans-serif" font-size="20" font-weight="700" letter-spacing="4">PAdES • ICP-BRASIL • VERIFICAR • AUTENTICIDADE • </text>
    </pattern>
    <filter id="badgeShadow" x="-20%" y="-30%" width="140%" height="160%">
      <feDropShadow dx="0" dy="8" stdDeviation="11" flood-color="#11214c" flood-opacity=".2"/>
    </filter>
    <clipPath id="bodyClip"><rect x="25" y="25" width="4046" height="785" rx="24"/></clipPath>
  </defs>

  <rect x="7" y="7" width="4082" height="821" rx="31" fill="url(#paper)" stroke="#17231f" stroke-width="14"/>
  <rect x="25" y="25" width="4046" height="785" rx="24" fill="url(#microgrid)" stroke="#0a8f63" stroke-width="3" stroke-opacity=".35"/>
  <rect x="39" y="39" width="4018" height="757" rx="17" fill="none" stroke="#f5b51b" stroke-width="2" stroke-opacity=".58"/>
  <rect x="48" y="48" width="4000" height="739" rx="12" fill="none" stroke="#2858b8" stroke-width="1.5" stroke-opacity=".18"/>

  <rect x="25" y="25" width="24" height="785" fill="url(#gold)" fill-opacity=".86"/>
  <rect x="49" y="25" width="6" height="785" fill="#0a8f63" fill-opacity=".68"/>
  <rect x="55" y="25" width="4" height="785" fill="#2858b8" fill-opacity=".3"/>
  <rect x="92" y="55" width="3932" height="35" fill="url(#microtext)" opacity=".38"/>
  <rect x="92" y="745" width="3932" height="35" fill="url(#microtext)" opacity=".38" transform="rotate(180 2058 762.5)"/>

  <g clip-path="url(#bodyClip)" fill="none">
    <g stroke="#0b9468" stroke-width="4" stroke-opacity=".16">
      <path d="M-260 430C230 48 710 790 1200 420S2070 68 2540 420s820 348 1290 0 820-348 1290 0"/>
      <path d="M-260 430C230 92 710 746 1200 420s870-308 1340 0 820 308 1290 0 820-308 1290 0"/>
      <path d="M-260 430C230 136 710 702 1200 420s870-264 1340 0 820 264 1290 0 820-264 1290 0"/>
      <path d="M-260 430C230 180 710 658 1200 420s870-220 1340 0 820 220 1290 0 820-220 1290 0"/>
    </g>
    <g stroke="#f5b51b" stroke-width="3" stroke-opacity=".24">
      <path d="M-180 292C460 730 980 38 1630 438s1120 400 1760 0 1120-400 1760 0"/>
      <path d="M-180 350C460 692 980 76 1630 412s1120 336 1760 0 1120-336 1760 0"/>
    </g>
    <g stroke="#2858b8" stroke-width="3" stroke-opacity=".13">
      <path d="M-120 520C560 102 1060 752 1680 360s1110-392 1710 0 1090 392 1690 0"/>
      <path d="M-120 560C560 150 1060 704 1680 390s1110-314 1710 0 1090 314 1690 0"/>
    </g>
  </g>

  <g transform="translate(540 418)" fill="none">
    <circle r="316" fill="url(#brandHalo)" stroke="#0a8f63" stroke-width="5" stroke-opacity=".32"/>
    <circle r="286" stroke="#0a8f63" stroke-width="4" stroke-dasharray="7 13" stroke-opacity=".43"/>
    <circle r="252" stroke="#f5b51b" stroke-width="3" stroke-dasharray="12 14" stroke-opacity=".4"/>
    <g stroke="#0a8f63" stroke-width="4" stroke-opacity=".34">
      <ellipse rx="286" ry="116" transform="rotate(0)"/>
      <ellipse rx="286" ry="116" transform="rotate(24)"/>
      <ellipse rx="286" ry="116" transform="rotate(48)"/>
      <ellipse rx="286" ry="116" transform="rotate(72)"/>
      <ellipse rx="286" ry="116" transform="rotate(96)"/>
      <ellipse rx="286" ry="116" transform="rotate(120)"/>
      <ellipse rx="286" ry="116" transform="rotate(144)"/>
    </g>
  </g>

  <g transform="translate(3608 418)" fill="none">
    <circle r="292" fill="url(#padesHalo)" stroke="#2858b8" stroke-width="5" stroke-opacity=".25"/>
    <circle r="263" stroke="#2858b8" stroke-width="4" stroke-dasharray="8 14" stroke-opacity=".34"/>
    <circle r="229" stroke="#f5b51b" stroke-width="3" stroke-dasharray="11 13" stroke-opacity=".42"/>
    <g stroke="#2858b8" stroke-width="3" stroke-opacity=".23">
      <ellipse rx="264" ry="104" transform="rotate(0)"/>
      <ellipse rx="264" ry="104" transform="rotate(30)"/>
      <ellipse rx="264" ry="104" transform="rotate(60)"/>
      <ellipse rx="264" ry="104" transform="rotate(90)"/>
      <ellipse rx="264" ry="104" transform="rotate(120)"/>
      <ellipse rx="264" ry="104" transform="rotate(150)"/>
    </g>
  </g>

  <rect x="180" y="151" width="3130" height="534" rx="18" fill="url(#dataZone)"/>
  <rect x="200" y="177" width="11" height="482" rx="5" fill="url(#gold)" fill-opacity=".88"/>
  <rect x="222" y="177" width="3" height="482" fill="#0a8f63" fill-opacity=".62"/>
  <path d="M250 179h2950M250 657h2950" stroke="#0a8f63" stroke-width="2" stroke-opacity=".14" stroke-dasharray="5 10"/>

  <g transform="translate(3608 418)">
    <g filter="url(#badgeShadow)">
      <rect x="-232" y="-137" width="464" height="274" rx="35" fill="url(#padesBadge)" stroke="#f5b51b" stroke-width="5"/>
      <rect x="-218" y="-123" width="436" height="246" rx="25" fill="none" stroke="#fff" stroke-width="2" stroke-opacity=".35"/>
      <text x="-181" y="-79" fill="#d9e5ff" font-family="Arial,Helvetica,sans-serif" font-size="24" font-weight="800" letter-spacing="7">PERFIL TÉCNICO</text>
      <text x="-185" y="43" fill="#fff" font-family="Arial,Helvetica,sans-serif" font-size="116" font-weight="900" letter-spacing="0">PAdES</text>
      <path d="M-181 69h362" stroke="#f5b51b" stroke-width="6"/>
      <text x="-180" y="111" fill="#fff" fill-opacity=".92" font-family="Arial,Helvetica,sans-serif" font-size="26" font-weight="800" letter-spacing="4">AD-RB · ICP-BRASIL</text>
    </g>
  </g>

  <g font-family="Arial,Helvetica,sans-serif" font-weight="700" fill="#17231f" fill-opacity=".13">
    <text x="250" y="136" font-size="26" letter-spacing="8">DADOS CRIPTOGRÁFICOS DA ASSINATURA • SIGNATURE DATA</text>
    <text x="250" y="718" font-size="22" letter-spacing="7">A REPRESENTAÇÃO VISUAL NÃO SUBSTITUI A VALIDAÇÃO DO PDF</text>
  </g>
</svg>
