<?xml version="1.0" encoding="UTF-8"?>
<svg xmlns="http://www.w3.org/2000/svg" viewBox="0 0 2480 3508" role="img" aria-labelledby="title desc">
  <title id="title">Fundo integral de segurança visual da folha de evidências Maiocchi</title>
  <desc id="desc">Guilloché em linguagem de passaporte com rosetas, microtexto e contornos das marcas m. e MAIOCCHI.</desc>
  <defs>
    <linearGradient id="paper" x1="0" y1="0" x2="1" y2="1">
      <stop offset="0" stop-color="#f1f9f5"/>
      <stop offset=".38" stop-color="#ffffff"/>
      <stop offset=".68" stop-color="#fbfcff"/>
      <stop offset="1" stop-color="#edf2fb"/>
    </linearGradient>
    <radialGradient id="mintHalo" cx="50%" cy="50%" r="50%">
      <stop offset="0" stop-color="#cbe9dd" stop-opacity=".58"/>
      <stop offset="1" stop-color="#cbe9dd" stop-opacity="0"/>
    </radialGradient>
    <radialGradient id="blueHalo" cx="50%" cy="50%" r="50%">
      <stop offset="0" stop-color="#dce5f8" stop-opacity=".58"/>
      <stop offset="1" stop-color="#dce5f8" stop-opacity="0"/>
    </radialGradient>
    <pattern id="microgrid" width="74" height="74" patternUnits="userSpaceOnUse">
      <path d="M0 37h74M37 0v74" fill="none" stroke="#087b61" stroke-width="1" stroke-opacity=".055"/>
      <circle cx="37" cy="37" r="17" fill="none" stroke="#2d5aa7" stroke-width="1" stroke-opacity=".045"/>
      <circle cx="37" cy="37" r="2.5" fill="#e1a000" fill-opacity=".11"/>
    </pattern>
    <pattern id="microtext" width="930" height="38" patternUnits="userSpaceOnUse">
      <text x="0" y="27" fill="#16312a" fill-opacity=".34" font-family="Arial,Helvetica,sans-serif" font-size="19" font-weight="700" letter-spacing="4">MAIOCCHI • M. • PADES • AUTENTICIDADE • EVIDÊNCIA • </text>
    </pattern>
    <clipPath id="pageClip"><rect width="2480" height="3508"/></clipPath>
  </defs>

  <rect width="2480" height="3508" fill="url(#paper)"/>
  <rect width="2480" height="3508" fill="url(#microgrid)"/>
  <circle cx="2050" cy="620" r="690" fill="url(#blueHalo)"/>
  <circle cx="360" cy="2890" r="760" fill="url(#mintHalo)"/>

  <g clip-path="url(#pageClip)" fill="none"><path d="M0.0 737.8 L22.1 769.0 L44.3 799.0 L66.4 827.5 L88.6 854.0 L110.7 878.3 L132.9 900.0 L155.0 918.9 L177.1 934.7 L199.3 947.2 L221.4 956.3 L243.6 961.8 L265.7 963.7 L287.9 962.1 L310.0 956.8 L332.1 948.1 L354.3 936.0 L376.4 920.7 L398.6 902.4 L420.7 881.5 L442.9 858.1 L465.0 832.7 L487.1 805.5 L509.3 777.0 L531.4 747.5 L553.6 717.4 L575.7 687.2 L597.9 657.3 L620.0 628.0 L642.1 599.8 L664.3 573.0 L686.4 548.0 L708.6 525.1 L730.7 504.6 L752.9 486.8 L775.0 472.0 L797.1 460.2 L819.3 451.6 L841.4 446.4 L863.6 444.5 L885.7 446.0 L907.9 450.8 L930.0 458.9 L952.1 470.0 L974.3 484.0 L996.4 500.7 L1018.6 519.7 L1040.7 540.9 L1062.9 563.9 L1085.0 588.3 L1107.1 613.8 L1129.3 639.9 L1151.4 666.3 L1173.6 692.6 L1195.7 718.4 L1217.9 743.3 L1240.0 766.9 L1262.1 788.8 L1284.3 808.8 L1306.4 826.5 L1328.6 841.7 L1350.7 854.0 L1372.9 863.4 L1395.0 869.6 L1417.1 872.6 L1439.3 872.2 L1461.4 868.5 L1483.6 861.5 L1505.7 851.3 L1527.9 838.0 L1550.0 821.8 L1572.1 802.8 L1594.3 781.4 L1616.4 757.7 L1638.6 732.3 L1660.7 705.3 L1682.9 677.1 L1705.0 648.2 L1727.1 618.9 L1749.3 589.7 L1771.4 561.0 L1793.6 533.0 L1815.7 506.4 L1837.9 481.3 L1860.0 458.3 L1882.1 437.5 L1904.3 419.4 L1926.4 404.2 L1948.6 392.0 L1970.7 383.2 L1992.9 377.7 L2015.0 375.8 L2037.1 377.5 L2059.3 382.8 L2081.4 391.6 L2103.6 403.8 L2125.7 419.3 L2147.9 438.0 L2170.0 459.5 L2192.1 483.6 L2214.3 510.0 L2236.4 538.3 L2258.6 568.3 L2280.7 599.5 L2302.9 631.5 L2325.0 664.0 L2347.1 696.4 L2369.3 728.4 L2391.4 759.6 L2413.6 789.5 L2435.7 817.8 L2457.9 844.1 L2480.0 868.2" stroke="#087b61" stroke-width="2.3" stroke-opacity="0.13"/>
<path d="M0.0 781.7 L22.1 812.3 L44.3 841.4 L66.4 868.6 L88.6 893.7 L110.7 916.3 L132.9 936.0 L155.0 952.7 L177.1 966.1 L199.3 976.1 L221.4 982.5 L243.6 985.2 L265.7 984.3 L287.9 979.7 L310.0 971.6 L332.1 960.0 L354.3 945.1 L376.4 927.2 L398.6 906.4 L420.7 883.1 L442.9 857.6 L465.0 830.2 L487.1 801.3 L509.3 771.3 L531.4 740.6 L553.6 709.7 L575.7 678.8 L597.9 648.6 L620.0 619.2 L642.1 591.3 L664.3 565.0 L686.4 540.8 L708.6 518.9 L730.7 499.8 L752.9 483.4 L775.0 470.2 L797.1 460.3 L819.3 453.6 L841.4 450.4 L863.6 450.7 L885.7 454.3 L907.9 461.3 L930.0 471.4 L952.1 484.6 L974.3 500.5 L996.4 519.0 L1018.6 539.8 L1040.7 562.5 L1062.9 586.8 L1085.0 612.3 L1107.1 638.6 L1129.3 665.4 L1151.4 692.2 L1173.6 718.6 L1195.7 744.3 L1217.9 768.8 L1240.0 791.7 L1262.1 812.9 L1284.3 831.8 L1306.4 848.2 L1328.6 861.9 L1350.7 872.7 L1372.9 880.3 L1395.0 884.7 L1417.1 885.7 L1439.3 883.4 L1461.4 877.8 L1483.6 868.8 L1505.7 856.7 L1527.9 841.6 L1550.0 823.7 L1572.1 803.2 L1594.3 780.3 L1616.4 755.5 L1638.6 729.1 L1660.7 701.4 L1682.9 672.7 L1705.0 643.6 L1727.1 614.4 L1749.3 585.5 L1771.4 557.3 L1793.6 530.3 L1815.7 504.8 L1837.9 481.2 L1860.0 459.8 L1882.1 440.9 L1904.3 424.9 L1926.4 411.9 L1948.6 402.1 L1970.7 395.8 L1992.9 393.1 L2015.0 393.9 L2037.1 398.3 L2059.3 406.3 L2081.4 417.8 L2103.6 432.7 L2125.7 450.8 L2147.9 471.8 L2170.0 495.5 L2192.1 521.6 L2214.3 549.8 L2236.4 579.8 L2258.6 611.0 L2280.7 643.2 L2302.9 676.0 L2325.0 708.8 L2347.1 741.3 L2369.3 773.1 L2391.4 803.8 L2413.6 832.9 L2435.7 860.1 L2457.9 885.0 L2480.0 907.4" stroke="#087b61" stroke-width="2.3" stroke-opacity="0.13"/>
<path d="M0.0 824.8 L22.1 854.5 L44.3 882.5 L66.4 908.3 L88.6 931.6 L110.7 952.2 L132.9 969.7 L155.0 984.0 L177.1 994.8 L199.3 1002.1 L221.4 1005.6 L243.6 1005.5 L265.7 1001.6 L287.9 994.1 L310.0 983.1 L332.1 968.7 L354.3 951.1 L376.4 930.5 L398.6 907.3 L420.7 881.7 L442.9 854.1 L465.0 825.0 L487.1 794.5 L509.3 763.3 L531.4 731.6 L553.6 699.9 L575.7 668.7 L597.9 638.4 L620.0 609.2 L642.1 581.8 L664.3 556.2 L686.4 533.1 L708.6 512.5 L730.7 494.8 L752.9 480.1 L775.0 468.8 L797.1 460.8 L819.3 456.3 L841.4 455.3 L863.6 457.7 L885.7 463.6 L907.9 472.7 L930.0 485.0 L952.1 500.3 L974.3 518.2 L996.4 538.5 L1018.6 560.9 L1040.7 585.1 L1062.9 610.6 L1085.0 637.2 L1107.1 664.3 L1129.3 691.6 L1151.4 718.7 L1173.6 745.1 L1195.7 770.5 L1217.9 794.6 L1240.0 816.8 L1262.1 837.0 L1284.3 854.7 L1306.4 869.8 L1328.6 882.0 L1350.7 891.1 L1372.9 896.9 L1395.0 899.5 L1417.1 898.6 L1439.3 894.3 L1461.4 886.7 L1483.6 875.9 L1505.7 862.0 L1527.9 845.1 L1550.0 825.6 L1572.1 803.7 L1594.3 779.6 L1616.4 753.7 L1638.6 726.5 L1660.7 698.2 L1682.9 669.2 L1705.0 640.1 L1727.1 611.1 L1749.3 582.7 L1771.4 555.4 L1793.6 529.4 L1815.7 505.2 L1837.9 483.1 L1860.0 463.5 L1882.1 446.7 L1904.3 432.8 L1926.4 422.2 L1948.6 415.0 L1970.7 411.3 L1992.9 411.2 L2015.0 414.8 L2037.1 421.9 L2059.3 432.6 L2081.4 446.7 L2103.6 464.1 L2125.7 484.6 L2147.9 507.8 L2170.0 533.6 L2192.1 561.5 L2214.3 591.3 L2236.4 622.6 L2258.6 654.9 L2280.7 687.8 L2302.9 721.0 L2325.0 754.0 L2347.1 786.3 L2369.3 817.6 L2391.4 847.5 L2413.6 875.5 L2435.7 901.3 L2457.9 924.6 L2480.0 945.0" stroke="#087b61" stroke-width="2.3" stroke-opacity="0.13"/>
<path d="M0.0 866.8 L22.1 895.4 L44.3 921.8 L66.4 945.9 L88.6 967.3 L110.7 985.6 L132.9 1000.8 L155.0 1012.5 L177.1 1020.6 L199.3 1024.9 L221.4 1025.6 L243.6 1022.5 L265.7 1015.6 L287.9 1005.2 L310.0 991.2 L332.1 974.0 L354.3 953.7 L376.4 930.6 L398.6 905.1 L420.7 877.4 L442.9 847.9 L465.0 817.1 L487.1 785.3 L509.3 753.0 L531.4 720.6 L553.6 688.5 L575.7 657.1 L597.9 626.9 L620.0 598.2 L642.1 571.5 L664.3 547.0 L686.4 525.1 L708.6 506.0 L730.7 490.0 L752.9 477.2 L775.0 467.9 L797.1 462.1 L819.3 459.8 L841.4 461.1 L863.6 465.9 L885.7 474.1 L907.9 485.5 L930.0 500.0 L952.1 517.3 L974.3 537.2 L996.4 559.3 L1018.6 583.4 L1040.7 608.9 L1062.9 635.7 L1085.0 663.1 L1107.1 690.9 L1129.3 718.7 L1151.4 745.9 L1173.6 772.3 L1195.7 797.4 L1217.9 820.8 L1240.0 842.2 L1262.1 861.3 L1284.3 877.8 L1306.4 891.5 L1328.6 902.0 L1350.7 909.4 L1372.9 913.4 L1395.0 914.1 L1417.1 911.3 L1439.3 905.1 L1461.4 895.6 L1483.6 882.9 L1505.7 867.2 L1527.9 848.7 L1550.0 827.7 L1572.1 804.4 L1594.3 779.2 L1616.4 752.5 L1638.6 724.6 L1660.7 695.9 L1682.9 666.8 L1705.0 637.8 L1727.1 609.2 L1749.3 581.5 L1771.4 555.1 L1793.6 530.3 L1815.7 507.6 L1837.9 487.3 L1860.0 469.6 L1882.1 454.9 L1904.3 443.3 L1926.4 435.2 L1948.6 430.5 L1970.7 429.4 L1992.9 432.0 L2015.0 438.2 L2037.1 448.1 L2059.3 461.4 L2081.4 478.0 L2103.6 497.8 L2125.7 520.5 L2147.9 545.8 L2170.0 573.4 L2192.1 603.0 L2214.3 634.1 L2236.4 666.4 L2258.6 699.5 L2280.7 732.9 L2302.9 766.3 L2325.0 799.1 L2347.1 830.9 L2369.3 861.4 L2391.4 890.2 L2413.6 916.8 L2435.7 940.9 L2457.9 962.3 L2480.0 980.7" stroke="#087b61" stroke-width="2.3" stroke-opacity="0.13"/>
<path d="M0.0 907.3 L22.1 934.4 L44.3 959.2 L66.4 981.3 L88.6 1000.5 L110.7 1016.4 L132.9 1028.9 L155.0 1037.9 L177.1 1043.1 L199.3 1044.5 L221.4 1042.2 L243.6 1036.0 L265.7 1026.2 L287.9 1012.7 L310.0 995.9 L332.1 976.0 L354.3 953.1 L376.4 927.6 L398.6 899.9 L420.7 870.2 L442.9 839.1 L465.0 806.8 L487.1 773.9 L509.3 740.8 L531.4 707.9 L553.6 675.6 L575.7 644.3 L597.9 614.5 L620.0 586.6 L642.1 560.8 L664.3 537.6 L686.4 517.2 L708.6 499.8 L730.7 485.7 L752.9 475.1 L775.0 468.0 L797.1 464.5 L819.3 464.6 L841.4 468.3 L863.6 475.5 L885.7 486.1 L907.9 499.9 L930.0 516.6 L952.1 536.0 L974.3 557.8 L996.4 581.7 L1018.6 607.3 L1040.7 634.2 L1062.9 662.0 L1085.0 690.4 L1107.1 718.7 L1129.3 746.8 L1151.4 774.1 L1173.6 800.2 L1195.7 824.9 L1217.9 847.6 L1240.0 868.0 L1262.1 886.0 L1284.3 901.1 L1306.4 913.2 L1328.6 922.2 L1350.7 927.7 L1372.9 929.9 L1395.0 928.6 L1417.1 923.9 L1439.3 915.8 L1461.4 904.4 L1483.6 889.9 L1505.7 872.5 L1527.9 852.5 L1550.0 830.0 L1572.1 805.6 L1594.3 779.4 L1616.4 751.9 L1638.6 723.5 L1660.7 694.5 L1682.9 665.5 L1705.0 636.7 L1727.1 608.7 L1749.3 581.9 L1771.4 556.6 L1793.6 533.2 L1815.7 512.1 L1837.9 493.6 L1860.0 478.0 L1882.1 465.5 L1904.3 456.3 L1926.4 450.6 L1948.6 448.5 L1970.7 450.1 L1992.9 455.3 L2015.0 464.2 L2037.1 476.6 L2059.3 492.4 L2081.4 511.4 L2103.6 533.5 L2125.7 558.2 L2147.9 585.4 L2170.0 614.6 L2192.1 645.5 L2214.3 677.8 L2236.4 710.9 L2258.6 744.5 L2280.7 778.1 L2302.9 811.3 L2325.0 843.6 L2347.1 874.7 L2369.3 904.1 L2391.4 931.5 L2413.6 956.5 L2435.7 978.7 L2457.9 997.9 L2480.0 1013.9" stroke="#087b61" stroke-width="2.3" stroke-opacity="0.13"/>
<path d="M0.0 945.8 L22.1 971.3 L44.3 994.1 L66.4 1014.1 L88.6 1030.9 L110.7 1044.2 L132.9 1054.0 L155.0 1060.1 L177.1 1062.3 L199.3 1060.7 L221.4 1055.3 L243.6 1046.1 L265.7 1033.2 L287.9 1016.9 L310.0 997.3 L332.1 974.7 L354.3 949.3 L376.4 921.6 L398.6 891.8 L420.7 860.4 L442.9 827.8 L465.0 794.4 L487.1 760.6 L509.3 726.9 L531.4 693.8 L553.6 661.6 L575.7 630.7 L597.9 601.6 L620.0 574.6 L642.1 550.1 L664.3 528.4 L686.4 509.7 L708.6 494.3 L730.7 482.4 L752.9 474.0 L775.0 469.3 L797.1 468.3 L819.3 470.9 L841.4 477.2 L863.6 486.9 L885.7 499.9 L907.9 516.1 L930.0 535.0 L952.1 556.6 L974.3 580.3 L996.4 605.9 L1018.6 633.0 L1040.7 661.1 L1062.9 689.9 L1085.0 719.0 L1107.1 747.8 L1129.3 776.1 L1151.4 803.3 L1173.6 829.1 L1195.7 853.1 L1217.9 875.0 L1240.0 894.4 L1262.1 911.0 L1284.3 924.7 L1306.4 935.2 L1328.6 942.4 L1350.7 946.1 L1372.9 946.4 L1395.0 943.1 L1417.1 936.5 L1439.3 926.4 L1461.4 913.2 L1483.6 897.0 L1505.7 877.9 L1527.9 856.4 L1550.0 832.7 L1572.1 807.1 L1594.3 780.1 L1616.4 752.0 L1638.6 723.2 L1660.7 694.1 L1682.9 665.3 L1705.0 637.0 L1727.1 609.7 L1749.3 583.9 L1771.4 559.8 L1793.6 537.9 L1815.7 518.6 L1837.9 502.0 L1860.0 488.5 L1882.1 478.3 L1904.3 471.5 L1926.4 468.3 L1948.6 468.8 L1970.7 473.0 L1992.9 480.8 L2015.0 492.2 L2037.1 507.1 L2059.3 525.3 L2081.4 546.6 L2103.6 570.7 L2125.7 597.4 L2147.9 626.2 L2170.0 656.8 L2192.1 688.9 L2214.3 721.9 L2236.4 755.6 L2258.6 789.4 L2280.7 822.8 L2302.9 855.6 L2325.0 887.2 L2347.1 917.2 L2369.3 945.3 L2391.4 971.0 L2413.6 994.1 L2435.7 1014.1 L2457.9 1031.0 L2480.0 1044.4" stroke="#087b61" stroke-width="2.3" stroke-opacity="0.13"/>
<path d="M0.0 982.2 L22.1 1005.8 L44.3 1026.5 L66.4 1044.0 L88.6 1058.2 L110.7 1068.9 L132.9 1075.8 L155.0 1078.9 L177.1 1078.1 L199.3 1073.4 L221.4 1064.9 L243.6 1052.7 L265.7 1036.8 L287.9 1017.7 L310.0 995.4 L332.1 970.2 L354.3 942.6 L376.4 912.8 L398.6 881.2 L420.7 848.3 L442.9 814.4 L465.0 780.1 L487.1 745.7 L509.3 711.8 L531.4 678.6 L553.6 646.8 L575.7 616.6 L597.9 588.5 L620.0 562.8 L642.1 539.8 L664.3 519.9 L686.4 503.2 L708.6 489.9 L730.7 480.3 L752.9 474.4 L775.0 472.3 L797.1 473.9 L819.3 479.1 L841.4 488.0 L863.6 500.3 L885.7 515.9 L907.9 534.4 L930.0 555.6 L952.1 579.2 L974.3 604.8 L996.4 632.0 L1018.6 660.5 L1040.7 689.8 L1062.9 719.5 L1085.0 749.1 L1107.1 778.3 L1129.3 806.6 L1151.4 833.6 L1173.6 858.9 L1195.7 882.2 L1217.9 903.1 L1240.0 921.2 L1262.1 936.5 L1284.3 948.6 L1306.4 957.4 L1328.6 962.8 L1350.7 964.6 L1372.9 962.9 L1395.0 957.7 L1417.1 949.1 L1439.3 937.1 L1461.4 922.1 L1483.6 904.1 L1505.7 883.5 L1527.9 860.6 L1550.0 835.7 L1572.1 809.2 L1594.3 781.4 L1616.4 752.8 L1638.6 723.8 L1660.7 694.8 L1682.9 666.2 L1705.0 638.5 L1727.1 612.1 L1749.3 587.4 L1771.4 564.7 L1793.6 544.5 L1815.7 526.9 L1837.9 512.4 L1860.0 501.1 L1882.1 493.2 L1904.3 488.8 L1926.4 488.2 L1948.6 491.2 L1970.7 497.9 L1992.9 508.3 L2015.0 522.2 L2037.1 539.5 L2059.3 559.9 L2081.4 583.3 L2103.6 609.3 L2125.7 637.6 L2147.9 667.8 L2170.0 699.6 L2192.1 732.5 L2214.3 766.1 L2236.4 800.0 L2258.6 833.7 L2280.7 866.8 L2302.9 898.9 L2325.0 929.4 L2347.1 958.1 L2369.3 984.6 L2391.4 1008.4 L2413.6 1029.3 L2435.7 1047.0 L2457.9 1061.2 L2480.0 1071.9" stroke="#087b61" stroke-width="2.3" stroke-opacity="0.13"/>
<path d="M0.0 1629.7 L22.1 1636.7 L44.3 1640.9 L66.4 1642.3 L88.6 1640.8 L110.7 1636.4 L132.9 1629.2 L155.0 1619.2 L177.1 1606.4 L199.3 1590.9 L221.4 1572.9 L243.6 1552.5 L265.7 1529.8 L287.9 1505.1 L310.0 1478.4 L332.1 1450.0 L354.3 1420.2 L376.4 1389.1 L398.6 1357.1 L420.7 1324.3 L442.9 1291.1 L465.0 1257.6 L487.1 1224.2 L509.3 1191.1 L531.4 1158.6 L553.6 1126.9 L575.7 1096.4 L597.9 1067.2 L620.0 1039.5 L642.1 1013.7 L664.3 989.9 L686.4 968.2 L708.6 949.0 L730.7 932.2 L752.9 918.1 L775.0 906.7 L797.1 898.1 L819.3 892.5 L841.4 889.8 L863.6 890.0 L885.7 893.2 L907.9 899.3 L930.0 908.2 L952.1 919.9 L974.3 934.3 L996.4 951.1 L1018.6 970.4 L1040.7 991.8 L1062.9 1015.3 L1085.0 1040.6 L1107.1 1067.6 L1129.3 1095.9 L1151.4 1125.3 L1173.6 1155.6 L1195.7 1186.6 L1217.9 1217.9 L1240.0 1249.4 L1262.1 1280.6 L1284.3 1311.5 L1306.4 1341.7 L1328.6 1371.0 L1350.7 1399.1 L1372.9 1425.9 L1395.0 1451.0 L1417.1 1474.3 L1439.3 1495.6 L1461.4 1514.8 L1483.6 1531.6 L1505.7 1546.0 L1527.9 1557.8 L1550.0 1567.0 L1572.1 1573.5 L1594.3 1577.2 L1616.4 1578.2 L1638.6 1576.5 L1660.7 1572.0 L1682.9 1564.9 L1705.0 1555.2 L1727.1 1543.1 L1749.3 1528.6 L1771.4 1511.9 L1793.6 1493.1 L1815.7 1472.5 L1837.9 1450.3 L1860.0 1426.5 L1882.1 1401.6 L1904.3 1375.7 L1926.4 1349.0 L1948.6 1321.9 L1970.7 1294.5 L1992.9 1267.1 L2015.0 1239.9 L2037.1 1213.3 L2059.3 1187.5 L2081.4 1162.7 L2103.6 1139.1 L2125.7 1116.9 L2147.9 1096.5 L2170.0 1077.9 L2192.1 1061.3 L2214.3 1047.0 L2236.4 1034.9 L2258.6 1025.4 L2280.7 1018.4 L2302.9 1014.0 L2325.0 1012.3 L2347.1 1013.3 L2369.3 1017.1 L2391.4 1023.5 L2413.6 1032.6 L2435.7 1044.3 L2457.9 1058.4 L2480.0 1075.0" stroke="#2d5aa7" stroke-width="2.3" stroke-opacity="0.085"/>
<path d="M0.0 1648.1 L22.1 1652.6 L44.3 1654.2 L66.4 1652.9 L88.6 1648.8 L110.7 1641.8 L132.9 1631.9 L155.0 1619.3 L177.1 1604.1 L199.3 1586.2 L221.4 1565.9 L243.6 1543.3 L265.7 1518.7 L287.9 1492.0 L310.0 1463.7 L332.1 1433.9 L354.3 1402.8 L376.4 1370.7 L398.6 1337.9 L420.7 1304.5 L442.9 1270.9 L465.0 1237.4 L487.1 1204.1 L509.3 1171.5 L531.4 1139.6 L553.6 1108.9 L575.7 1079.5 L597.9 1051.7 L620.0 1025.6 L642.1 1001.6 L664.3 979.8 L686.4 960.3 L708.6 943.4 L730.7 929.2 L752.9 917.7 L775.0 909.0 L797.1 903.3 L819.3 900.6 L841.4 900.8 L863.6 904.0 L885.7 910.2 L907.9 919.2 L930.0 931.1 L952.1 945.6 L974.3 962.7 L996.4 982.3 L1018.6 1004.1 L1040.7 1028.0 L1062.9 1053.7 L1085.0 1081.1 L1107.1 1109.9 L1129.3 1139.9 L1151.4 1170.8 L1173.6 1202.4 L1195.7 1234.4 L1217.9 1266.5 L1240.0 1298.5 L1262.1 1330.1 L1284.3 1361.1 L1306.4 1391.2 L1328.6 1420.1 L1350.7 1447.6 L1372.9 1473.5 L1395.0 1497.6 L1417.1 1519.8 L1439.3 1539.7 L1461.4 1557.3 L1483.6 1572.4 L1505.7 1585.0 L1527.9 1594.8 L1550.0 1602.0 L1572.1 1606.3 L1594.3 1607.9 L1616.4 1606.7 L1638.6 1602.7 L1660.7 1596.1 L1682.9 1586.8 L1705.0 1574.9 L1727.1 1560.7 L1749.3 1544.2 L1771.4 1525.6 L1793.6 1505.1 L1815.7 1482.8 L1837.9 1459.1 L1860.0 1434.1 L1882.1 1408.0 L1904.3 1381.1 L1926.4 1353.7 L1948.6 1325.9 L1970.7 1298.2 L1992.9 1270.6 L2015.0 1243.5 L2037.1 1217.1 L2059.3 1191.7 L2081.4 1167.5 L2103.6 1144.8 L2125.7 1123.7 L2147.9 1104.4 L2170.0 1087.1 L2192.1 1072.0 L2214.3 1059.3 L2236.4 1049.0 L2258.6 1041.2 L2280.7 1036.1 L2302.9 1033.7 L2325.0 1034.0 L2347.1 1037.0 L2369.3 1042.8 L2391.4 1051.2 L2413.6 1062.2 L2435.7 1075.8 L2457.9 1091.7 L2480.0 1110.0" stroke="#2d5aa7" stroke-width="2.3" stroke-opacity="0.085"/>
<path d="M0.0 1663.6 L22.1 1665.5 L44.3 1664.5 L66.4 1660.7 L88.6 1653.9 L110.7 1644.4 L132.9 1632.0 L155.0 1617.0 L177.1 1599.3 L199.3 1579.2 L221.4 1556.8 L243.6 1532.3 L265.7 1505.8 L287.9 1477.6 L310.0 1447.8 L332.1 1416.8 L354.3 1384.7 L376.4 1351.8 L398.6 1318.4 L420.7 1284.8 L442.9 1251.1 L465.0 1217.8 L487.1 1185.0 L509.3 1153.1 L531.4 1122.2 L553.6 1092.6 L575.7 1064.7 L597.9 1038.5 L620.0 1014.3 L642.1 992.3 L664.3 972.7 L686.4 955.7 L708.6 941.3 L730.7 929.7 L752.9 921.0 L775.0 915.3 L797.1 912.5 L819.3 912.8 L841.4 916.1 L863.6 922.3 L885.7 931.5 L907.9 943.5 L930.0 958.2 L952.1 975.6 L974.3 995.4 L996.4 1017.6 L1018.6 1041.8 L1040.7 1068.0 L1062.9 1095.8 L1085.0 1125.1 L1107.1 1155.7 L1129.3 1187.1 L1151.4 1219.3 L1173.6 1252.0 L1195.7 1284.8 L1217.9 1317.5 L1240.0 1349.8 L1262.1 1381.5 L1284.3 1412.3 L1306.4 1442.0 L1328.6 1470.3 L1350.7 1497.0 L1372.9 1521.9 L1395.0 1544.7 L1417.1 1565.4 L1439.3 1583.7 L1461.4 1599.6 L1483.6 1612.8 L1505.7 1623.4 L1527.9 1631.1 L1550.0 1636.1 L1572.1 1638.2 L1594.3 1637.5 L1616.4 1633.9 L1638.6 1627.6 L1660.7 1618.7 L1682.9 1607.1 L1705.0 1593.1 L1727.1 1576.8 L1749.3 1558.3 L1771.4 1537.8 L1793.6 1515.6 L1815.7 1491.8 L1837.9 1466.6 L1860.0 1440.3 L1882.1 1413.1 L1904.3 1385.4 L1926.4 1357.3 L1948.6 1329.1 L1970.7 1301.0 L1992.9 1273.4 L2015.0 1246.4 L2037.1 1220.4 L2059.3 1195.6 L2081.4 1172.1 L2103.6 1150.3 L2125.7 1130.3 L2147.9 1112.3 L2170.0 1096.4 L2192.1 1082.9 L2214.3 1071.8 L2236.4 1063.3 L2258.6 1057.4 L2280.7 1054.2 L2302.9 1053.7 L2325.0 1056.0 L2347.1 1061.0 L2369.3 1068.7 L2391.4 1079.1 L2413.6 1092.0 L2435.7 1107.4 L2457.9 1125.0 L2480.0 1144.9" stroke="#2d5aa7" stroke-width="2.3" stroke-opacity="0.085"/>
<path d="M0.0 1676.4 L22.1 1675.8 L44.3 1672.3 L66.4 1665.9 L88.6 1656.6 L110.7 1644.6 L132.9 1629.9 L155.0 1612.5 L177.1 1592.7 L199.3 1570.5 L221.4 1546.1 L243.6 1519.8 L265.7 1491.7 L287.9 1462.1 L310.0 1431.2 L332.1 1399.1 L354.3 1366.3 L376.4 1332.9 L398.6 1299.3 L420.7 1265.6 L442.9 1232.2 L465.0 1199.4 L487.1 1167.4 L509.3 1136.4 L531.4 1106.7 L553.6 1078.6 L575.7 1052.3 L597.9 1028.1 L620.0 1006.0 L642.1 986.3 L664.3 969.1 L686.4 954.7 L708.6 943.0 L730.7 934.3 L752.9 928.5 L775.0 925.8 L797.1 926.0 L819.3 929.4 L841.4 935.7 L863.6 945.0 L885.7 957.2 L907.9 972.1 L930.0 989.7 L952.1 1009.8 L974.3 1032.3 L996.4 1056.9 L1018.6 1083.5 L1040.7 1111.7 L1062.9 1141.5 L1085.0 1172.6 L1107.1 1204.6 L1129.3 1237.4 L1151.4 1270.7 L1173.6 1304.1 L1195.7 1337.5 L1217.9 1370.5 L1240.0 1402.9 L1262.1 1434.4 L1284.3 1464.8 L1306.4 1493.9 L1328.6 1521.3 L1350.7 1546.9 L1372.9 1570.5 L1395.0 1591.9 L1417.1 1610.9 L1439.3 1627.4 L1461.4 1641.3 L1483.6 1652.4 L1505.7 1660.8 L1527.9 1666.3 L1550.0 1668.9 L1572.1 1668.6 L1594.3 1665.5 L1616.4 1659.5 L1638.6 1650.9 L1660.7 1639.6 L1682.9 1625.7 L1705.0 1609.5 L1727.1 1591.1 L1749.3 1570.6 L1771.4 1548.3 L1793.6 1524.3 L1815.7 1498.9 L1837.9 1472.4 L1860.0 1444.9 L1882.1 1416.8 L1904.3 1388.3 L1926.4 1359.6 L1948.6 1331.0 L1970.7 1302.8 L1992.9 1275.2 L2015.0 1248.6 L2037.1 1223.0 L2059.3 1198.8 L2081.4 1176.2 L2103.6 1155.4 L2125.7 1136.6 L2147.9 1120.0 L2170.0 1105.6 L2192.1 1093.7 L2214.3 1084.3 L2236.4 1077.6 L2258.6 1073.6 L2280.7 1072.4 L2302.9 1073.9 L2325.0 1078.1 L2347.1 1085.1 L2369.3 1094.8 L2391.4 1107.0 L2413.6 1121.8 L2435.7 1138.9 L2457.9 1158.1 L2480.0 1179.5" stroke="#2d5aa7" stroke-width="2.3" stroke-opacity="0.085"/>
<path d="M0.0 1686.8 L22.1 1683.7 L44.3 1677.8 L66.4 1668.9 L88.6 1657.3 L110.7 1642.9 L132.9 1625.8 L155.0 1606.3 L177.1 1584.4 L199.3 1560.4 L221.4 1534.3 L243.6 1506.4 L265.7 1477.0 L287.9 1446.2 L310.0 1414.3 L332.1 1381.5 L354.3 1348.2 L376.4 1314.6 L398.6 1281.0 L420.7 1247.6 L442.9 1214.7 L465.0 1182.7 L487.1 1151.6 L509.3 1121.9 L531.4 1093.8 L553.6 1067.4 L575.7 1043.0 L597.9 1020.8 L620.0 1001.0 L642.1 983.8 L664.3 969.3 L686.4 957.6 L708.6 948.8 L730.7 943.0 L752.9 940.3 L775.0 940.6 L797.1 944.0 L819.3 950.4 L841.4 959.8 L863.6 972.1 L885.7 987.3 L907.9 1005.1 L930.0 1025.5 L952.1 1048.2 L974.3 1073.2 L996.4 1100.1 L1018.6 1128.8 L1040.7 1159.1 L1062.9 1190.6 L1085.0 1223.2 L1107.1 1256.5 L1129.3 1290.3 L1151.4 1324.4 L1173.6 1358.4 L1195.7 1392.1 L1217.9 1425.2 L1240.0 1457.4 L1262.1 1488.5 L1284.3 1518.2 L1306.4 1546.3 L1328.6 1572.6 L1350.7 1596.9 L1372.9 1618.9 L1395.0 1638.6 L1417.1 1655.7 L1439.3 1670.2 L1461.4 1681.9 L1483.6 1690.8 L1505.7 1696.7 L1527.9 1699.8 L1550.0 1699.9 L1572.1 1697.2 L1594.3 1691.5 L1616.4 1683.1 L1638.6 1672.0 L1660.7 1658.3 L1682.9 1642.2 L1705.0 1623.7 L1727.1 1603.2 L1749.3 1580.8 L1771.4 1556.6 L1793.6 1531.0 L1815.7 1504.2 L1837.9 1476.4 L1860.0 1447.8 L1882.1 1418.8 L1904.3 1389.6 L1926.4 1360.4 L1948.6 1331.6 L1970.7 1303.4 L1992.9 1276.0 L2015.0 1249.7 L2037.1 1224.8 L2059.3 1201.4 L2081.4 1179.8 L2103.6 1160.1 L2125.7 1142.6 L2147.9 1127.4 L2170.0 1114.6 L2192.1 1104.4 L2214.3 1096.8 L2236.4 1092.0 L2258.6 1089.9 L2280.7 1090.6 L2302.9 1094.1 L2325.0 1100.3 L2347.1 1109.3 L2369.3 1120.8 L2391.4 1134.9 L2413.6 1151.4 L2435.7 1170.1 L2457.9 1191.0 L2480.0 1213.7" stroke="#2d5aa7" stroke-width="2.3" stroke-opacity="0.085"/>
<path d="M0.0 1695.2 L22.1 1689.7 L44.3 1681.3 L66.4 1670.1 L88.6 1656.2 L110.7 1639.5 L132.9 1620.4 L155.0 1598.9 L177.1 1575.1 L199.3 1549.3 L221.4 1521.7 L243.6 1492.5 L265.7 1461.9 L287.9 1430.2 L310.0 1397.6 L332.1 1364.5 L354.3 1330.9 L376.4 1297.4 L398.6 1264.0 L420.7 1231.2 L442.9 1199.1 L465.0 1168.0 L487.1 1138.3 L509.3 1110.1 L531.4 1083.6 L553.6 1059.2 L575.7 1037.0 L597.9 1017.1 L620.0 999.8 L642.1 985.2 L664.3 973.5 L686.4 964.7 L708.6 958.9 L730.7 956.1 L752.9 956.5 L775.0 959.9 L797.1 966.4 L819.3 975.9 L841.4 988.4 L863.6 1003.7 L885.7 1021.7 L907.9 1042.4 L930.0 1065.4 L952.1 1090.7 L974.3 1118.0 L996.4 1147.1 L1018.6 1177.7 L1040.7 1209.7 L1062.9 1242.8 L1085.0 1276.6 L1107.1 1311.0 L1129.3 1345.6 L1151.4 1380.2 L1173.6 1414.5 L1195.7 1448.2 L1217.9 1481.0 L1240.0 1512.7 L1262.1 1543.1 L1284.3 1571.9 L1306.4 1598.8 L1328.6 1623.7 L1350.7 1646.4 L1372.9 1666.6 L1395.0 1684.3 L1417.1 1699.4 L1439.3 1711.6 L1461.4 1721.0 L1483.6 1727.4 L1505.7 1730.8 L1527.9 1731.3 L1550.0 1728.9 L1572.1 1723.5 L1594.3 1715.3 L1616.4 1704.3 L1638.6 1690.7 L1660.7 1674.6 L1682.9 1656.1 L1705.0 1635.5 L1727.1 1612.9 L1749.3 1588.5 L1771.4 1562.6 L1793.6 1535.5 L1815.7 1507.2 L1837.9 1478.2 L1860.0 1448.7 L1882.1 1418.9 L1904.3 1389.2 L1926.4 1359.7 L1948.6 1330.7 L1970.7 1302.6 L1992.9 1275.6 L2015.0 1249.8 L2037.1 1225.6 L2059.3 1203.1 L2081.4 1182.6 L2103.6 1164.2 L2125.7 1148.1 L2147.9 1134.4 L2170.0 1123.3 L2192.1 1114.9 L2214.3 1109.2 L2236.4 1106.3 L2258.6 1106.1 L2280.7 1108.8 L2302.9 1114.3 L2325.0 1122.5 L2347.1 1133.4 L2369.3 1146.8 L2391.4 1162.7 L2413.6 1180.8 L2435.7 1201.1 L2457.9 1223.4 L2480.0 1247.4" stroke="#2d5aa7" stroke-width="2.3" stroke-opacity="0.085"/>
<path d="M0.0 2203.3 L22.1 2181.4 L44.3 2155.8 L66.4 2126.8 L88.6 2095.1 L110.7 2061.2 L132.9 2025.6 L155.0 1989.0 L177.1 1952.1 L199.3 1915.4 L221.4 1879.7 L243.6 1845.6 L265.7 1813.7 L287.9 1784.6 L310.0 1758.8 L332.1 1736.9 L354.3 1719.2 L376.4 1706.0 L398.6 1697.7 L420.7 1694.4 L442.9 1696.2 L465.0 1703.2 L487.1 1715.3 L509.3 1732.3 L531.4 1753.9 L553.6 1779.9 L575.7 1809.8 L597.9 1843.2 L620.0 1879.6 L642.1 1918.4 L664.3 1958.9 L686.4 2000.5 L708.6 2042.5 L730.7 2084.3 L752.9 2125.2 L775.0 2164.5 L797.1 2201.6 L819.3 2235.9 L841.4 2266.8 L863.6 2293.9 L885.7 2316.7 L907.9 2334.9 L930.0 2348.2 L952.1 2356.4 L974.3 2359.4 L996.4 2357.1 L1018.6 2349.7 L1040.7 2337.2 L1062.9 2320.0 L1085.0 2298.3 L1107.1 2272.6 L1129.3 2243.2 L1151.4 2210.8 L1173.6 2175.8 L1195.7 2139.0 L1217.9 2100.8 L1240.0 2062.0 L1262.1 2023.3 L1284.3 1985.3 L1306.4 1948.7 L1328.6 1914.0 L1350.7 1881.9 L1372.9 1852.9 L1395.0 1827.4 L1417.1 1806.0 L1439.3 1788.8 L1461.4 1776.3 L1483.6 1768.5 L1505.7 1765.5 L1527.9 1767.5 L1550.0 1774.2 L1572.1 1785.6 L1594.3 1801.3 L1616.4 1821.1 L1638.6 1844.6 L1660.7 1871.3 L1682.9 1900.7 L1705.0 1932.3 L1727.1 1965.4 L1749.3 1999.4 L1771.4 2033.6 L1793.6 2067.5 L1815.7 2100.3 L1837.9 2131.5 L1860.0 2160.5 L1882.1 2186.7 L1904.3 2209.5 L1926.4 2228.7 L1948.6 2243.7 L1970.7 2254.3 L1992.9 2260.2 L2015.0 2261.3 L2037.1 2257.6 L2059.3 2249.0 L2081.4 2235.7 L2103.6 2217.9 L2125.7 2195.9 L2147.9 2170.0 L2170.0 2140.6 L2192.1 2108.3 L2214.3 2073.5 L2236.4 2036.9 L2258.6 1999.1 L2280.7 1960.7 L2302.9 1922.4 L2325.0 1884.9 L2347.1 1848.8 L2369.3 1814.8 L2391.4 1783.3 L2413.6 1755.1 L2435.7 1730.6 L2457.9 1710.3 L2480.0 1694.5" stroke="#d59700" stroke-width="2.3" stroke-opacity="0.105"/>
<path d="M0.0 2208.8 L22.1 2184.9 L44.3 2157.5 L66.4 2127.0 L88.6 2094.1 L110.7 2059.2 L132.9 2023.1 L155.0 1986.4 L177.1 1949.6 L199.3 1913.6 L221.4 1878.9 L243.6 1846.2 L265.7 1816.0 L287.9 1789.0 L310.0 1765.6 L332.1 1746.3 L354.3 1731.5 L376.4 1721.5 L398.6 1716.4 L420.7 1716.5 L442.9 1721.7 L465.0 1732.1 L487.1 1747.5 L509.3 1767.6 L531.4 1792.3 L553.6 1821.1 L575.7 1853.6 L597.9 1889.2 L620.0 1927.4 L642.1 1967.6 L664.3 2009.2 L686.4 2051.4 L708.6 2093.7 L730.7 2135.2 L752.9 2175.4 L775.0 2213.5 L797.1 2249.1 L819.3 2281.4 L841.4 2310.0 L863.6 2334.5 L885.7 2354.3 L907.9 2369.3 L930.0 2379.2 L952.1 2383.8 L974.3 2383.1 L996.4 2377.1 L1018.6 2366.0 L1040.7 2350.0 L1062.9 2329.3 L1085.0 2304.3 L1107.1 2275.5 L1129.3 2243.3 L1151.4 2208.4 L1173.6 2171.3 L1195.7 2132.6 L1217.9 2093.1 L1240.0 2053.3 L1262.1 2014.1 L1284.3 1975.9 L1306.4 1939.5 L1328.6 1905.5 L1350.7 1874.5 L1372.9 1846.8 L1395.0 1823.1 L1417.1 1803.6 L1439.3 1788.7 L1461.4 1778.6 L1483.6 1773.3 L1505.7 1773.1 L1527.9 1777.7 L1550.0 1787.1 L1572.1 1801.1 L1594.3 1819.4 L1616.4 1841.6 L1638.6 1867.2 L1660.7 1895.9 L1682.9 1926.9 L1705.0 1959.8 L1727.1 1993.9 L1749.3 2028.5 L1771.4 2063.1 L1793.6 2096.8 L1815.7 2129.3 L1837.9 2159.7 L1860.0 2187.5 L1882.1 2212.2 L1904.3 2233.4 L1926.4 2250.5 L1948.6 2263.3 L1970.7 2271.5 L1992.9 2275.0 L2015.0 2273.5 L2037.1 2267.2 L2059.3 2256.1 L2081.4 2240.4 L2103.6 2220.2 L2125.7 2196.0 L2147.9 2168.2 L2170.0 2137.1 L2192.1 2103.4 L2214.3 2067.6 L2236.4 2030.4 L2258.6 1992.3 L2280.7 1954.0 L2302.9 1916.3 L2325.0 1879.7 L2347.1 1845.0 L2369.3 1812.6 L2391.4 1783.3 L2413.6 1757.5 L2435.7 1735.7 L2457.9 1718.4 L2480.0 1705.8" stroke="#d59700" stroke-width="2.3" stroke-opacity="0.105"/>
<path d="M0.0 2214.5 L22.1 2188.7 L44.3 2159.6 L66.4 2127.8 L88.6 2093.8 L110.7 2058.2 L132.9 2021.7 L155.0 1985.0 L177.1 1948.7 L199.3 1913.5 L221.4 1880.0 L243.6 1848.8 L265.7 1820.6 L287.9 1795.8 L310.0 1775.0 L332.1 1758.5 L354.3 1746.6 L376.4 1739.7 L398.6 1738.0 L420.7 1741.4 L442.9 1749.9 L465.0 1763.6 L487.1 1782.2 L509.3 1805.4 L531.4 1832.9 L553.6 1864.2 L575.7 1898.9 L597.9 1936.5 L620.0 1976.3 L642.1 2017.6 L664.3 2059.9 L686.4 2102.4 L708.6 2144.5 L730.7 2185.4 L752.9 2224.5 L775.0 2261.2 L797.1 2294.8 L819.3 2324.9 L841.4 2350.8 L863.6 2372.3 L885.7 2388.9 L907.9 2400.5 L930.0 2406.8 L952.1 2407.7 L974.3 2403.2 L996.4 2393.5 L1018.6 2378.6 L1040.7 2359.0 L1062.9 2334.9 L1085.0 2306.7 L1107.1 2274.9 L1129.3 2240.1 L1151.4 2202.8 L1173.6 2163.8 L1195.7 2123.6 L1217.9 2082.9 L1240.0 2042.5 L1262.1 2003.0 L1284.3 1965.0 L1306.4 1929.1 L1328.6 1896.1 L1350.7 1866.4 L1372.9 1840.4 L1395.0 1818.6 L1417.1 1801.4 L1439.3 1788.9 L1461.4 1781.4 L1483.6 1778.9 L1505.7 1781.4 L1527.9 1788.9 L1550.0 1801.1 L1572.1 1817.8 L1594.3 1838.6 L1616.4 1863.1 L1638.6 1890.9 L1660.7 1921.4 L1682.9 1954.0 L1705.0 1988.1 L1727.1 2023.1 L1749.3 2058.3 L1771.4 2093.0 L1793.6 2126.5 L1815.7 2158.4 L1837.9 2187.8 L1860.0 2214.4 L1882.1 2237.6 L1904.3 2256.9 L1926.4 2272.0 L1948.6 2282.5 L1970.7 2288.4 L1992.9 2289.3 L2015.0 2285.3 L2037.1 2276.5 L2059.3 2262.9 L2081.4 2244.7 L2103.6 2222.4 L2125.7 2196.2 L2147.9 2166.6 L2170.0 2134.1 L2192.1 2099.2 L2214.3 2062.6 L2236.4 2024.9 L2258.6 1986.8 L2280.7 1948.9 L2302.9 1912.0 L2325.0 1876.6 L2347.1 1843.4 L2369.3 1813.0 L2391.4 1786.0 L2413.6 1762.8 L2435.7 1743.9 L2457.9 1729.7 L2480.0 1720.4" stroke="#d59700" stroke-width="2.3" stroke-opacity="0.105"/>
<path d="M0.0 2220.4 L22.1 2192.8 L44.3 2162.1 L66.4 2129.1 L88.6 2094.2 L110.7 2058.1 L132.9 2021.5 L155.0 1985.0 L177.1 1949.3 L199.3 1915.0 L221.4 1882.9 L243.6 1853.5 L265.7 1827.3 L287.9 1804.9 L310.0 1786.7 L332.1 1773.1 L354.3 1764.3 L376.4 1760.6 L398.6 1762.1 L420.7 1768.8 L442.9 1780.6 L465.0 1797.4 L487.1 1819.1 L509.3 1845.1 L531.4 1875.2 L553.6 1908.9 L575.7 1945.6 L597.9 1984.7 L620.0 2025.7 L642.1 2067.9 L664.3 2110.5 L686.4 2153.0 L708.6 2194.5 L730.7 2234.4 L752.9 2272.1 L775.0 2306.9 L797.1 2338.3 L819.3 2365.8 L841.4 2388.8 L863.6 2407.1 L885.7 2420.3 L907.9 2428.2 L930.0 2430.7 L952.1 2427.8 L974.3 2419.5 L996.4 2406.0 L1018.6 2387.4 L1040.7 2364.2 L1062.9 2336.8 L1085.0 2305.5 L1107.1 2270.9 L1129.3 2233.7 L1151.4 2194.3 L1173.6 2153.6 L1195.7 2112.1 L1217.9 2070.6 L1240.0 2029.8 L1262.1 1990.3 L1284.3 1952.8 L1306.4 1917.8 L1328.6 1886.0 L1350.7 1857.9 L1372.9 1833.9 L1395.0 1814.3 L1417.1 1799.6 L1439.3 1789.8 L1461.4 1785.1 L1483.6 1785.5 L1505.7 1790.9 L1527.9 1801.3 L1550.0 1816.4 L1572.1 1835.8 L1594.3 1859.2 L1616.4 1886.0 L1638.6 1915.9 L1660.7 1948.2 L1682.9 1982.3 L1705.0 2017.5 L1727.1 2053.2 L1749.3 2088.8 L1771.4 2123.5 L1793.6 2156.7 L1815.7 2187.8 L1837.9 2216.2 L1860.0 2241.4 L1882.1 2262.9 L1904.3 2280.3 L1926.4 2293.3 L1948.6 2301.5 L1970.7 2304.9 L1992.9 2303.3 L2015.0 2296.8 L2037.1 2285.5 L2059.3 2269.5 L2081.4 2249.1 L2103.6 2224.6 L2125.7 2196.6 L2147.9 2165.4 L2170.0 2131.6 L2192.1 2095.8 L2214.3 2058.6 L2236.4 2020.7 L2258.6 1982.8 L2280.7 1945.6 L2302.9 1909.6 L2325.0 1875.6 L2347.1 1844.2 L2369.3 1816.0 L2391.4 1791.4 L2413.6 1771.0 L2435.7 1755.1 L2457.9 1744.1 L2480.0 1738.2" stroke="#d59700" stroke-width="2.3" stroke-opacity="0.105"/>
<path d="M0.0 2226.5 L22.1 2197.2 L44.3 2165.1 L66.4 2131.0 L88.6 2095.4 L110.7 2058.9 L132.9 2022.3 L155.0 1986.2 L177.1 1951.3 L199.3 1918.3 L221.4 1887.7 L243.6 1860.1 L265.7 1836.2 L287.9 1816.2 L310.0 1800.8 L332.1 1790.1 L354.3 1784.4 L376.4 1783.8 L398.6 1788.5 L420.7 1798.4 L442.9 1813.4 L465.0 1833.3 L487.1 1857.7 L509.3 1886.4 L531.4 1918.9 L553.6 1954.6 L575.7 1993.0 L597.9 2033.4 L620.0 2075.3 L642.1 2117.9 L664.3 2160.6 L686.4 2202.6 L708.6 2243.2 L730.7 2281.8 L752.9 2317.7 L775.0 2350.4 L797.1 2379.2 L819.3 2403.8 L841.4 2423.6 L863.6 2438.5 L885.7 2448.0 L907.9 2452.2 L930.0 2450.8 L952.1 2444.0 L974.3 2431.8 L996.4 2414.5 L1018.6 2392.4 L1040.7 2365.7 L1062.9 2335.0 L1085.0 2300.8 L1107.1 2263.7 L1129.3 2224.2 L1151.4 2183.0 L1173.6 2140.9 L1195.7 2098.5 L1217.9 2056.5 L1240.0 2015.5 L1262.1 1976.4 L1284.3 1939.6 L1306.4 1905.9 L1328.6 1875.7 L1350.7 1849.5 L1372.9 1827.7 L1395.0 1810.6 L1417.1 1798.6 L1439.3 1791.7 L1461.4 1789.9 L1483.6 1793.4 L1505.7 1801.9 L1527.9 1815.3 L1550.0 1833.3 L1572.1 1855.4 L1594.3 1881.3 L1616.4 1910.5 L1638.6 1942.4 L1660.7 1976.4 L1682.9 2011.9 L1705.0 2048.1 L1727.1 2084.4 L1749.3 2120.2 L1771.4 2154.8 L1793.6 2187.5 L1815.7 2217.8 L1837.9 2245.0 L1860.0 2268.7 L1882.1 2288.4 L1904.3 2303.7 L1926.4 2314.5 L1948.6 2320.3 L1970.7 2321.3 L1992.9 2317.2 L2015.0 2308.2 L2037.1 2294.4 L2059.3 2276.1 L2081.4 2253.5 L2103.6 2227.1 L2125.7 2197.3 L2147.9 2164.7 L2170.0 2129.8 L2192.1 2093.3 L2214.3 2055.7 L2236.4 2017.9 L2258.6 1980.4 L2280.7 1944.0 L2302.9 1909.3 L2325.0 1876.9 L2347.1 1847.4 L2369.3 1821.5 L2391.4 1799.5 L2413.6 1782.0 L2435.7 1769.2 L2457.9 1761.5 L2480.0 1759.0" stroke="#d59700" stroke-width="2.3" stroke-opacity="0.105"/>
<path d="M0.0 3122.0 L22.1 3148.7 L44.3 3172.6 L66.4 3193.4 L88.6 3210.9 L110.7 3225.0 L132.9 3235.5 L155.0 3242.3 L177.1 3245.3 L199.3 3244.4 L221.4 3239.8 L243.6 3231.3 L265.7 3219.1 L287.9 3203.3 L310.0 3184.0 L332.1 3161.5 L354.3 3135.8 L376.4 3107.4 L398.6 3076.4 L420.7 3043.1 L442.9 3007.8 L465.0 2971.0 L487.1 2932.9 L509.3 2893.9 L531.4 2854.3 L553.6 2814.6 L575.7 2775.2 L597.9 2736.3 L620.0 2698.4 L642.1 2661.9 L664.3 2627.0 L686.4 2594.1 L708.6 2563.5 L730.7 2535.6 L752.9 2510.4 L775.0 2488.3 L797.1 2469.5 L819.3 2454.1 L841.4 2442.3 L863.6 2434.1 L885.7 2429.6 L907.9 2428.8 L930.0 2431.7 L952.1 2438.2 L974.3 2448.3 L996.4 2461.8 L1018.6 2478.6 L1040.7 2498.4 L1062.9 2521.0 L1085.0 2546.2 L1107.1 2573.7 L1129.3 2603.2 L1151.4 2634.3 L1173.6 2666.8 L1195.7 2700.3 L1217.9 2734.3 L1240.0 2768.7 L1262.1 2802.9 L1284.3 2836.7 L1306.4 2869.6 L1328.6 2901.3 L1350.7 2931.6 L1372.9 2960.0 L1395.0 2986.2 L1417.1 3010.1 L1439.3 3031.3 L1461.4 3049.7 L1483.6 3065.0 L1505.7 3077.1 L1527.9 3085.8 L1550.0 3091.1 L1572.1 3093.0 L1594.3 3091.3 L1616.4 3086.2 L1638.6 3077.7 L1660.7 3065.8 L1682.9 3050.8 L1705.0 3032.8 L1727.1 3011.9 L1749.3 2988.4 L1771.4 2962.6 L1793.6 2934.8 L1815.7 2905.1 L1837.9 2874.1 L1860.0 2841.9 L1882.1 2809.0 L1904.3 2775.6 L1926.4 2742.3 L1948.6 2709.2 L1970.7 2676.9 L1992.9 2645.6 L2015.0 2615.7 L2037.1 2587.5 L2059.3 2561.3 L2081.4 2537.5 L2103.6 2516.2 L2125.7 2497.8 L2147.9 2482.5 L2170.0 2470.4 L2192.1 2461.7 L2214.3 2456.6 L2236.4 2455.0 L2258.6 2457.1 L2280.7 2462.8 L2302.9 2472.2 L2325.0 2485.1 L2347.1 2501.5 L2369.3 2521.2 L2391.4 2544.0 L2413.6 2569.8 L2435.7 2598.3 L2457.9 2629.2 L2480.0 2662.3" stroke="#087b61" stroke-width="2.3" stroke-opacity="0.11"/>
<path d="M0.0 3159.6 L22.1 3183.7 L44.3 3204.9 L66.4 3222.7 L88.6 3237.2 L110.7 3248.0 L132.9 3255.2 L155.0 3258.5 L177.1 3258.0 L199.3 3253.6 L221.4 3245.4 L243.6 3233.4 L265.7 3217.8 L287.9 3198.7 L310.0 3176.2 L332.1 3150.6 L354.3 3122.2 L376.4 3091.0 L398.6 3057.6 L420.7 3022.1 L442.9 2985.0 L465.0 2946.5 L487.1 2907.1 L509.3 2867.1 L531.4 2826.9 L553.6 2786.8 L575.7 2747.4 L597.9 2708.8 L620.0 2671.5 L642.1 2635.9 L664.3 2602.2 L686.4 2570.8 L708.6 2542.0 L730.7 2516.1 L752.9 2493.2 L775.0 2473.6 L797.1 2457.4 L819.3 2444.8 L841.4 2435.9 L863.6 2430.8 L885.7 2429.4 L907.9 2431.7 L930.0 2437.8 L952.1 2447.5 L974.3 2460.7 L996.4 2477.2 L1018.6 2496.8 L1040.7 2519.4 L1062.9 2544.7 L1085.0 2572.3 L1107.1 2602.0 L1129.3 2633.5 L1151.4 2666.4 L1173.6 2700.4 L1195.7 2735.1 L1217.9 2770.1 L1240.0 2805.2 L1262.1 2839.8 L1284.3 2873.7 L1306.4 2906.5 L1328.6 2937.8 L1350.7 2967.3 L1372.9 2994.8 L1395.0 3019.9 L1417.1 3042.4 L1439.3 3062.1 L1461.4 3078.7 L1483.6 3092.0 L1505.7 3102.1 L1527.9 3108.7 L1550.0 3111.8 L1572.1 3111.3 L1594.3 3107.4 L1616.4 3100.0 L1638.6 3089.2 L1660.7 3075.1 L1682.9 3058.0 L1705.0 3038.0 L1727.1 3015.3 L1749.3 2990.1 L1771.4 2962.8 L1793.6 2933.7 L1815.7 2903.0 L1837.9 2871.1 L1860.0 2838.4 L1882.1 2805.1 L1904.3 2771.8 L1926.4 2738.6 L1948.6 2706.1 L1970.7 2674.5 L1992.9 2644.2 L2015.0 2615.6 L2037.1 2588.9 L2059.3 2564.5 L2081.4 2542.6 L2103.6 2523.6 L2125.7 2507.5 L2147.9 2494.7 L2170.0 2485.2 L2192.1 2479.2 L2214.3 2476.9 L2236.4 2478.1 L2258.6 2483.1 L2280.7 2491.7 L2302.9 2503.8 L2325.0 2519.5 L2347.1 2538.5 L2369.3 2560.6 L2391.4 2585.8 L2413.6 2613.8 L2435.7 2644.2 L2457.9 2676.9 L2480.0 2711.4" stroke="#087b61" stroke-width="2.3" stroke-opacity="0.11"/>
<path d="M0.0 3193.4 L22.1 3214.9 L44.3 3233.1 L66.4 3247.9 L88.6 3259.1 L110.7 3266.6 L132.9 3270.3 L155.0 3270.2 L177.1 3266.1 L199.3 3258.2 L221.4 3246.6 L243.6 3231.2 L265.7 3212.3 L287.9 3189.9 L310.0 3164.4 L332.1 3136.0 L354.3 3104.8 L376.4 3071.3 L398.6 3035.7 L420.7 2998.3 L442.9 2959.6 L465.0 2919.8 L487.1 2879.4 L509.3 2838.7 L531.4 2798.2 L553.6 2758.1 L575.7 2718.9 L597.9 2681.0 L620.0 2644.7 L642.1 2610.3 L664.3 2578.2 L686.4 2548.7 L708.6 2521.9 L730.7 2498.3 L752.9 2478.0 L775.0 2461.1 L797.1 2447.8 L819.3 2438.2 L841.4 2432.5 L863.6 2430.5 L885.7 2432.4 L907.9 2438.0 L930.0 2447.3 L952.1 2460.2 L974.3 2476.5 L996.4 2496.1 L1018.6 2518.6 L1040.7 2543.9 L1062.9 2571.7 L1085.0 2601.7 L1107.1 2633.5 L1129.3 2666.9 L1151.4 2701.4 L1173.6 2736.8 L1195.7 2772.6 L1217.9 2808.4 L1240.0 2843.9 L1262.1 2878.8 L1284.3 2912.6 L1306.4 2945.0 L1328.6 2975.8 L1350.7 3004.4 L1372.9 3030.8 L1395.0 3054.6 L1417.1 3075.5 L1439.3 3093.4 L1461.4 3108.1 L1483.6 3119.4 L1505.7 3127.3 L1527.9 3131.6 L1550.0 3132.4 L1572.1 3129.6 L1594.3 3123.3 L1616.4 3113.6 L1638.6 3100.6 L1660.7 3084.4 L1682.9 3065.2 L1705.0 3043.2 L1727.1 3018.7 L1749.3 2992.0 L1771.4 2963.3 L1793.6 2933.0 L1815.7 2901.3 L1837.9 2868.7 L1860.0 2835.6 L1882.1 2802.1 L1904.3 2768.9 L1926.4 2736.1 L1948.6 2704.2 L1970.7 2673.5 L1992.9 2644.4 L2015.0 2617.2 L2037.1 2592.1 L2059.3 2569.6 L2081.4 2549.8 L2103.6 2532.9 L2125.7 2519.3 L2147.9 2509.0 L2170.0 2502.1 L2192.1 2498.9 L2214.3 2499.3 L2236.4 2503.3 L2258.6 2511.1 L2280.7 2522.4 L2302.9 2537.2 L2325.0 2555.4 L2347.1 2576.9 L2369.3 2601.4 L2391.4 2628.7 L2413.6 2658.6 L2435.7 2690.7 L2457.9 2724.8 L2480.0 2760.6" stroke="#087b61" stroke-width="2.3" stroke-opacity="0.11"/>
<path d="M0.0 3223.4 L22.1 3242.0 L44.3 3257.2 L66.4 3268.8 L88.6 3276.7 L110.7 3280.8 L132.9 3281.1 L155.0 3277.4 L177.1 3269.9 L199.3 3258.5 L221.4 3243.5 L243.6 3224.8 L265.7 3202.7 L287.9 3177.3 L310.0 3149.0 L332.1 3117.9 L354.3 3084.3 L376.4 3048.6 L398.6 3011.1 L420.7 2972.2 L442.9 2932.1 L465.0 2891.4 L487.1 2850.3 L509.3 2809.3 L531.4 2768.8 L553.6 2729.0 L575.7 2690.5 L597.9 2653.6 L620.0 2618.6 L642.1 2585.8 L664.3 2555.6 L686.4 2528.2 L708.6 2503.8 L730.7 2482.8 L752.9 2465.2 L775.0 2451.3 L797.1 2441.2 L819.3 2434.8 L841.4 2432.4 L863.6 2433.8 L885.7 2439.0 L907.9 2448.0 L930.0 2460.6 L952.1 2476.8 L974.3 2496.2 L996.4 2518.8 L1018.6 2544.2 L1040.7 2572.1 L1062.9 2602.4 L1085.0 2634.6 L1107.1 2668.4 L1129.3 2703.5 L1151.4 2739.5 L1173.6 2776.0 L1195.7 2812.7 L1217.9 2849.2 L1240.0 2885.0 L1262.1 2919.9 L1284.3 2953.4 L1306.4 2985.3 L1328.6 3015.2 L1350.7 3042.8 L1372.9 3067.8 L1395.0 3090.0 L1417.1 3109.2 L1439.3 3125.2 L1461.4 3137.8 L1483.6 3147.0 L1505.7 3152.6 L1527.9 3154.6 L1550.0 3153.0 L1572.1 3147.8 L1594.3 3139.1 L1616.4 3127.0 L1638.6 3111.7 L1660.7 3093.3 L1682.9 3072.1 L1705.0 3048.2 L1727.1 3022.1 L1749.3 2993.8 L1771.4 2963.8 L1793.6 2932.4 L1815.7 2900.0 L1837.9 2866.8 L1860.0 2833.3 L1882.1 2799.8 L1904.3 2766.8 L1926.4 2734.5 L1948.6 2703.4 L1970.7 2673.7 L1992.9 2645.9 L2015.0 2620.2 L2037.1 2596.9 L2059.3 2576.3 L2081.4 2558.6 L2103.6 2544.1 L2125.7 2532.8 L2147.9 2525.1 L2170.0 2520.9 L2192.1 2520.3 L2214.3 2523.4 L2236.4 2530.2 L2258.6 2540.6 L2280.7 2554.6 L2302.9 2572.0 L2325.0 2592.6 L2347.1 2616.4 L2369.3 2643.0 L2391.4 2672.2 L2413.6 2703.8 L2435.7 2737.4 L2457.9 2772.7 L2480.0 2809.4" stroke="#087b61" stroke-width="2.3" stroke-opacity="0.11"/>
<path d="M0.0 3249.5 L22.1 3265.1 L44.3 3277.2 L66.4 3285.5 L88.6 3290.1 L110.7 3290.8 L132.9 3287.5 L155.0 3280.4 L177.1 3269.5 L199.3 3254.7 L221.4 3236.4 L243.6 3214.5 L265.7 3189.4 L287.9 3161.2 L310.0 3130.2 L332.1 3096.7 L354.3 3061.0 L376.4 3023.5 L398.6 2984.4 L420.7 2944.2 L442.9 2903.2 L465.0 2861.8 L487.1 2820.4 L509.3 2779.4 L531.4 2739.3 L553.6 2700.2 L575.7 2662.8 L597.9 2627.2 L620.0 2593.8 L642.1 2562.9 L664.3 2534.9 L686.4 2509.9 L708.6 2488.3 L730.7 2470.1 L752.9 2455.6 L775.0 2444.9 L797.1 2438.0 L819.3 2435.1 L841.4 2436.1 L863.6 2440.9 L885.7 2449.6 L907.9 2462.0 L930.0 2478.0 L952.1 2497.4 L974.3 2520.0 L996.4 2545.5 L1018.6 2573.6 L1040.7 2604.2 L1062.9 2636.8 L1085.0 2671.1 L1107.1 2706.7 L1129.3 2743.4 L1151.4 2780.6 L1173.6 2818.1 L1195.7 2855.5 L1217.9 2892.3 L1240.0 2928.2 L1262.1 2962.8 L1284.3 2995.9 L1306.4 3027.0 L1328.6 3055.8 L1350.7 3082.1 L1372.9 3105.6 L1395.0 3126.1 L1417.1 3143.4 L1439.3 3157.3 L1461.4 3167.7 L1483.6 3174.5 L1505.7 3177.7 L1527.9 3177.3 L1550.0 3173.2 L1572.1 3165.5 L1594.3 3154.4 L1616.4 3140.0 L1638.6 3122.4 L1660.7 3101.9 L1682.9 3078.6 L1705.0 3052.9 L1727.1 3025.1 L1749.3 2995.4 L1771.4 2964.2 L1793.6 2931.8 L1815.7 2898.7 L1837.9 2865.1 L1860.0 2831.4 L1882.1 2798.0 L1904.3 2765.3 L1926.4 2733.7 L1948.6 2703.5 L1970.7 2675.0 L1992.9 2648.5 L2015.0 2624.4 L2037.1 2602.9 L2059.3 2584.4 L2081.4 2568.9 L2103.6 2556.7 L2125.7 2547.9 L2147.9 2542.7 L2170.0 2541.1 L2192.1 2543.2 L2214.3 2549.0 L2236.4 2558.4 L2258.6 2571.4 L2280.7 2587.9 L2302.9 2607.7 L2325.0 2630.6 L2347.1 2656.5 L2369.3 2685.0 L2391.4 2715.9 L2413.6 2748.9 L2435.7 2783.8 L2457.9 2820.0 L2480.0 2857.3" stroke="#087b61" stroke-width="2.3" stroke-opacity="0.11"/>
<path d="M0.0 3271.7 L22.1 3284.2 L44.3 3293.1 L66.4 3298.1 L88.6 3299.3 L110.7 3296.6 L132.9 3289.9 L155.0 3279.4 L177.1 3265.1 L199.3 3247.1 L221.4 3225.6 L243.6 3200.8 L265.7 3172.9 L287.9 3142.1 L310.0 3108.7 L332.1 3073.1 L354.3 3035.5 L376.4 2996.4 L398.6 2956.1 L420.7 2914.9 L442.9 2873.3 L465.0 2831.6 L487.1 2790.3 L509.3 2749.7 L531.4 2710.3 L553.6 2672.3 L575.7 2636.2 L597.9 2602.3 L620.0 2570.9 L642.1 2542.3 L664.3 2516.8 L686.4 2494.5 L708.6 2475.8 L730.7 2460.8 L752.9 2449.5 L775.0 2442.2 L797.1 2438.8 L819.3 2439.4 L841.4 2443.9 L863.6 2452.3 L885.7 2464.5 L907.9 2480.4 L930.0 2499.7 L952.1 2522.3 L974.3 2547.9 L996.4 2576.3 L1018.6 2607.1 L1040.7 2640.1 L1062.9 2674.9 L1085.0 2711.1 L1107.1 2748.4 L1129.3 2786.4 L1151.4 2824.7 L1173.6 2863.0 L1195.7 2900.7 L1217.9 2937.7 L1240.0 2973.4 L1262.1 3007.6 L1284.3 3039.9 L1306.4 3069.9 L1328.6 3097.5 L1350.7 3122.3 L1372.9 3144.0 L1395.0 3162.6 L1417.1 3177.8 L1439.3 3189.4 L1461.4 3197.4 L1483.6 3201.8 L1505.7 3202.5 L1527.9 3199.4 L1550.0 3192.8 L1572.1 3182.6 L1594.3 3169.0 L1616.4 3152.2 L1638.6 3132.4 L1660.7 3109.7 L1682.9 3084.5 L1705.0 3057.0 L1727.1 3027.6 L1749.3 2996.6 L1771.4 2964.3 L1793.6 2931.1 L1815.7 2897.3 L1837.9 2863.4 L1860.0 2829.6 L1882.1 2796.5 L1904.3 2764.3 L1926.4 2733.4 L1948.6 2704.2 L1970.7 2676.9 L1992.9 2652.0 L2015.0 2629.6 L2037.1 2610.0 L2059.3 2593.5 L2081.4 2580.3 L2103.6 2570.5 L2125.7 2564.2 L2147.9 2561.5 L2170.0 2562.5 L2192.1 2567.2 L2214.3 2575.6 L2236.4 2587.6 L2258.6 2603.1 L2280.7 2621.9 L2302.9 2644.0 L2325.0 2669.0 L2347.1 2696.7 L2369.3 2727.0 L2391.4 2759.4 L2413.6 2793.6 L2435.7 2829.4 L2457.9 2866.3 L2480.0 2904.1" stroke="#087b61" stroke-width="2.3" stroke-opacity="0.11"/>
<path d="M0.0 3290.1 L22.1 3299.5 L44.3 3305.1 L66.4 3306.9 L88.6 3304.7 L110.7 3298.6 L132.9 3288.6 L155.0 3274.8 L177.1 3257.2 L199.3 3236.2 L221.4 3211.7 L243.6 3184.1 L265.7 3153.6 L287.9 3120.4 L310.0 3085.0 L332.1 3047.5 L354.3 3008.4 L376.4 2968.0 L398.6 2926.8 L420.7 2885.0 L442.9 2843.2 L465.0 2801.6 L487.1 2760.7 L509.3 2720.9 L531.4 2682.5 L553.6 2645.9 L575.7 2611.6 L597.9 2579.7 L620.0 2550.5 L642.1 2524.5 L664.3 2501.7 L686.4 2482.5 L708.6 2467.0 L730.7 2455.2 L752.9 2447.4 L775.0 2443.7 L797.1 2443.9 L819.3 2448.1 L841.4 2456.3 L863.6 2468.3 L885.7 2484.0 L907.9 2503.3 L930.0 2525.9 L952.1 2551.7 L974.3 2580.2 L996.4 2611.4 L1018.6 2644.7 L1040.7 2680.0 L1062.9 2716.7 L1085.0 2754.7 L1107.1 2793.4 L1129.3 2832.5 L1151.4 2871.6 L1173.6 2910.3 L1195.7 2948.3 L1217.9 2985.1 L1240.0 3020.4 L1262.1 3053.8 L1284.3 3085.1 L1306.4 3113.8 L1328.6 3139.9 L1350.7 3162.9 L1372.9 3182.7 L1395.0 3199.1 L1417.1 3212.0 L1439.3 3221.2 L1461.4 3226.7 L1483.6 3228.5 L1505.7 3226.5 L1527.9 3220.8 L1550.0 3211.5 L1572.1 3198.8 L1594.3 3182.7 L1616.4 3163.5 L1638.6 3141.4 L1660.7 3116.6 L1682.9 3089.5 L1705.0 3060.3 L1727.1 3029.4 L1749.3 2997.1 L1771.4 2963.8 L1793.6 2929.8 L1815.7 2895.6 L1837.9 2861.4 L1860.0 2827.8 L1882.1 2795.0 L1904.3 2763.4 L1926.4 2733.4 L1948.6 2705.3 L1970.7 2679.4 L1992.9 2656.1 L2015.0 2635.5 L2037.1 2617.9 L2059.3 2603.6 L2081.4 2592.6 L2103.6 2585.2 L2125.7 2581.4 L2147.9 2581.2 L2170.0 2584.8 L2192.1 2592.1 L2214.3 2603.0 L2236.4 2617.4 L2258.6 2635.3 L2280.7 2656.4 L2302.9 2680.5 L2325.0 2707.4 L2347.1 2736.9 L2369.3 2768.6 L2391.4 2802.3 L2413.6 2837.5 L2435.7 2874.0 L2457.9 2911.3 L2480.0 2949.2" stroke="#087b61" stroke-width="2.3" stroke-opacity="0.11"/>
<path d="M0.0 3305.0 L22.1 3311.2 L44.3 3313.5 L66.4 3311.9 L88.6 3306.4 L110.7 3297.0 L132.9 3283.8 L155.0 3266.8 L177.1 3246.2 L199.3 3222.2 L221.4 3195.0 L243.6 3164.9 L265.7 3132.0 L287.9 3096.8 L310.0 3059.5 L332.1 3020.5 L354.3 2980.2 L376.4 2939.0 L398.6 2897.1 L420.7 2855.1 L442.9 2813.4 L465.0 2772.2 L487.1 2732.1 L509.3 2693.4 L531.4 2656.5 L553.6 2621.7 L575.7 2589.3 L597.9 2559.8 L620.0 2533.2 L642.1 2510.0 L664.3 2490.3 L686.4 2474.3 L708.6 2462.1 L730.7 2453.9 L752.9 2449.8 L775.0 2449.6 L797.1 2453.6 L819.3 2461.5 L841.4 2473.3 L863.6 2488.9 L885.7 2508.2 L907.9 2530.8 L930.0 2556.7 L952.1 2585.5 L974.3 2616.9 L996.4 2650.6 L1018.6 2686.3 L1040.7 2723.6 L1062.9 2762.2 L1085.0 2801.6 L1107.1 2841.5 L1129.3 2881.4 L1151.4 2921.1 L1173.6 2960.0 L1195.7 2997.8 L1217.9 3034.2 L1240.0 3068.8 L1262.1 3101.2 L1284.3 3131.2 L1306.4 3158.4 L1328.6 3182.6 L1350.7 3203.7 L1372.9 3221.3 L1395.0 3235.3 L1417.1 3245.7 L1439.3 3252.3 L1461.4 3255.1 L1483.6 3254.2 L1505.7 3249.4 L1527.9 3241.0 L1550.0 3229.0 L1572.1 3213.7 L1594.3 3195.1 L1616.4 3173.5 L1638.6 3149.1 L1660.7 3122.3 L1682.9 3093.3 L1705.0 3062.4 L1727.1 3030.1 L1749.3 2996.7 L1771.4 2962.4 L1793.6 2927.8 L1815.7 2893.2 L1837.9 2859.0 L1860.0 2825.6 L1882.1 2793.3 L1904.3 2762.4 L1926.4 2733.4 L1948.6 2706.6 L1970.7 2682.2 L1992.9 2660.5 L2015.0 2641.8 L2037.1 2626.3 L2059.3 2614.2 L2081.4 2605.5 L2103.6 2600.5 L2125.7 2599.2 L2147.9 2601.6 L2170.0 2607.7 L2192.1 2617.4 L2214.3 2630.8 L2236.4 2647.6 L2258.6 2667.7 L2280.7 2690.9 L2302.9 2716.9 L2325.0 2745.6 L2347.1 2776.6 L2369.3 2809.6 L2391.4 2844.3 L2413.6 2880.3 L2435.7 2917.2 L2457.9 2954.8 L2480.0 2992.5" stroke="#087b61" stroke-width="2.3" stroke-opacity="0.11"/></g>

  <g transform="translate(2070 610)" fill="none" stroke="#2d5aa7" stroke-opacity="0.17">
      <circle r="442.8" stroke-width="3.2" stroke-dasharray="10 18"/>
      <circle r="352.6" stroke-width="2.2" stroke-dasharray="6 13"/>
      <g stroke-width="2.6"><ellipse rx="410" ry="155.8" transform="rotate(0)"/>
<ellipse rx="410" ry="155.8" transform="rotate(12.857142857142858)"/>
<ellipse rx="410" ry="155.8" transform="rotate(25.714285714285715)"/>
<ellipse rx="410" ry="155.8" transform="rotate(38.57142857142857)"/>
<ellipse rx="410" ry="155.8" transform="rotate(51.42857142857143)"/>
<ellipse rx="410" ry="155.8" transform="rotate(64.28571428571429)"/>
<ellipse rx="410" ry="155.8" transform="rotate(77.14285714285714)"/>
<ellipse rx="410" ry="155.8" transform="rotate(90)"/>
<ellipse rx="410" ry="155.8" transform="rotate(102.85714285714286)"/>
<ellipse rx="410" ry="155.8" transform="rotate(115.71428571428572)"/>
<ellipse rx="410" ry="155.8" transform="rotate(128.57142857142858)"/>
<ellipse rx="410" ry="155.8" transform="rotate(141.42857142857144)"/>
<ellipse rx="410" ry="155.8" transform="rotate(154.28571428571428)"/>
<ellipse rx="410" ry="155.8" transform="rotate(167.14285714285714)"/></g>
    </g>
  <g transform="translate(365 2865)" fill="none" stroke="#087b61" stroke-opacity="0.16">
      <circle r="507.6" stroke-width="3.2" stroke-dasharray="10 18"/>
      <circle r="404.2" stroke-width="2.2" stroke-dasharray="6 13"/>
      <g stroke-width="2.6"><ellipse rx="470" ry="159.8" transform="rotate(0)"/>
<ellipse rx="470" ry="159.8" transform="rotate(11.25)"/>
<ellipse rx="470" ry="159.8" transform="rotate(22.5)"/>
<ellipse rx="470" ry="159.8" transform="rotate(33.75)"/>
<ellipse rx="470" ry="159.8" transform="rotate(45)"/>
<ellipse rx="470" ry="159.8" transform="rotate(56.25)"/>
<ellipse rx="470" ry="159.8" transform="rotate(67.5)"/>
<ellipse rx="470" ry="159.8" transform="rotate(78.75)"/>
<ellipse rx="470" ry="159.8" transform="rotate(90)"/>
<ellipse rx="470" ry="159.8" transform="rotate(101.25)"/>
<ellipse rx="470" ry="159.8" transform="rotate(112.5)"/>
<ellipse rx="470" ry="159.8" transform="rotate(123.75)"/>
<ellipse rx="470" ry="159.8" transform="rotate(135)"/>
<ellipse rx="470" ry="159.8" transform="rotate(146.25)"/>
<ellipse rx="470" ry="159.8" transform="rotate(157.5)"/>
<ellipse rx="470" ry="159.8" transform="rotate(168.75)"/></g>
    </g>
  <g transform="translate(2250 2910)" fill="none" stroke="#d59700" stroke-opacity="0.12">
      <circle r="270" stroke-width="3.2" stroke-dasharray="10 18"/>
      <circle r="215" stroke-width="2.2" stroke-dasharray="6 13"/>
      <g stroke-width="2.6"><ellipse rx="250" ry="105.0" transform="rotate(0)"/>
<ellipse rx="250" ry="105.0" transform="rotate(16.363636363636363)"/>
<ellipse rx="250" ry="105.0" transform="rotate(32.72727272727273)"/>
<ellipse rx="250" ry="105.0" transform="rotate(49.09090909090909)"/>
<ellipse rx="250" ry="105.0" transform="rotate(65.45454545454545)"/>
<ellipse rx="250" ry="105.0" transform="rotate(81.81818181818181)"/>
<ellipse rx="250" ry="105.0" transform="rotate(98.18181818181819)"/>
<ellipse rx="250" ry="105.0" transform="rotate(114.54545454545455)"/>
<ellipse rx="250" ry="105.0" transform="rotate(130.9090909090909)"/>
<ellipse rx="250" ry="105.0" transform="rotate(147.27272727272728)"/>
<ellipse rx="250" ry="105.0" transform="rotate(163.63636363636363)"/></g>
    </g>

  <g fill="none" font-family="Arial Black,Arial,Helvetica,sans-serif" font-weight="900">
    <text x="-90" y="1460" font-size="1120" stroke="#087b61" stroke-width="7" stroke-opacity=".075">m</text>
    <circle cx="748" cy="1306" r="82" stroke="#d59700" stroke-width="8" stroke-opacity=".13"/>
    <text x="245" y="3200" font-size="430" stroke="#2d5aa7" stroke-width="5" stroke-opacity=".052">MAIOCCHI</text>
    <circle cx="2245" cy="3024" r="38" stroke="#d59700" stroke-width="6" stroke-opacity=".14"/>
    <text x="1660" y="1840" font-size="580" stroke="#087b61" stroke-width="4" stroke-opacity=".04" transform="rotate(-10 1660 1840)">m</text>
    <circle cx="2178" cy="1737" r="46" stroke="#d59700" stroke-width="5" stroke-opacity=".1"/>
  </g>

  <rect x="112" y="112" width="2256" height="38" fill="url(#microtext)" opacity=".7"/>
  <rect x="112" y="3358" width="2256" height="38" fill="url(#microtext)" opacity=".7" transform="rotate(180 1240 3377)"/>

  <g font-family="Arial,Helvetica,sans-serif" font-weight="700" fill="#17352d" fill-opacity=".09">
    <text x="176" y="205" font-size="25" letter-spacing="8">MAIOCCHI · DOCUMENT SECURITY GRAPHIC · PADES · VERIFICAÇÃO</text>
    <text x="176" y="3320" font-size="22" letter-spacing="7">O ORIGINAL É O PDF ASSINADO · CONFIRA QR · HASH · CÓDIGO</text>
  </g>
</svg>